<svg xmlns="http://www.w3.org/2000/svg" xmlns:xlink="http://www.w3.org/1999/xlink" width="200" zoomAndPan="magnify" viewBox="0 0 150 44.999999" height="60" preserveAspectRatio="xMidYMid meet" version="1.0"><defs><g/><clipPath id="b17d18b396"><path d="M 62 17 L 71.132812 17 L 71.132812 26.765625 L 62 26.765625 Z M 62 17 " clip-rule="nonzero"/></clipPath><clipPath id="0b4f3658dc"><path d="M 53.132812 8.765625 L 70 8.765625 L 70 26 L 53.132812 26 Z M 53.132812 8.765625 " clip-rule="nonzero"/></clipPath></defs><rect x="-15" width="180" fill="#ffffff" y="-4.5" height="53.999999" fill-opacity="1"/><rect x="-15" width="180" fill="#ffffff" y="-4.5" height="53.999999" fill-opacity="1"/><g fill="#242a33" fill-opacity="1"><g transform="translate(34.303519, 36.954595)"><g><path d="M 2.21875 0 L 0.203125 0 L 0.203125 -0.53125 L 0.734375 -0.78125 L 0.734375 -3.640625 L 0.203125 -3.890625 L 0.203125 -4.421875 L 2.21875 -4.421875 L 2.21875 -3.890625 L 1.671875 -3.640625 L 1.671875 -0.78125 L 2.21875 -0.53125 Z M 2.21875 0 "/></g></g></g><g fill="#242a33" fill-opacity="1"><g transform="translate(37.88095, 36.954595)"><g><path d="M 3.265625 0 L 2.953125 -1.046875 L 1.328125 -1.046875 L 1.015625 0 L 0 0 L 1.5625 -4.453125 L 2.703125 -4.453125 L 4.28125 0 Z M 2.71875 -1.84375 L 2.40625 -2.875 C 2.382812 -2.945312 2.351562 -3.035156 2.3125 -3.140625 C 2.28125 -3.242188 2.25 -3.351562 2.21875 -3.46875 C 2.1875 -3.582031 2.160156 -3.679688 2.140625 -3.765625 C 2.117188 -3.679688 2.085938 -3.578125 2.046875 -3.453125 C 2.015625 -3.328125 1.984375 -3.207031 1.953125 -3.09375 C 1.921875 -2.988281 1.898438 -2.914062 1.890625 -2.875 L 1.5625 -1.84375 Z M 2.71875 -1.84375 "/></g></g></g><g fill="#242a33" fill-opacity="1"><g transform="translate(43.324604, 36.954595)"><g><path d="M 2.265625 0 L 1.328125 0 L 1.328125 -3.640625 L 0.125 -3.640625 L 0.125 -4.421875 L 3.46875 -4.421875 L 3.46875 -3.640625 L 2.265625 -3.640625 Z M 2.265625 0 "/></g></g></g><g fill="#242a33" fill-opacity="1"><g transform="translate(48.080047, 36.954595)"><g><path d="M 1.96875 -4.421875 C 2.539062 -4.421875 2.957031 -4.296875 3.21875 -4.046875 C 3.476562 -3.804688 3.609375 -3.472656 3.609375 -3.046875 C 3.609375 -2.785156 3.554688 -2.539062 3.453125 -2.3125 C 3.347656 -2.09375 3.171875 -1.914062 2.921875 -1.78125 C 2.671875 -1.644531 2.328125 -1.578125 1.890625 -1.578125 L 1.5 -1.578125 L 1.5 0 L 0.5625 0 L 0.5625 -4.421875 Z M 1.921875 -3.65625 L 1.5 -3.65625 L 1.5 -2.34375 L 1.8125 -2.34375 C 2.070312 -2.34375 2.28125 -2.394531 2.4375 -2.5 C 2.59375 -2.601562 2.671875 -2.773438 2.671875 -3.015625 C 2.671875 -3.441406 2.421875 -3.65625 1.921875 -3.65625 Z M 1.921875 -3.65625 "/></g></g></g><g fill="#242a33" fill-opacity="1"><g transform="translate(53.139298, 36.954595)"><g><path d="M 2.21875 0 L 0.203125 0 L 0.203125 -0.53125 L 0.734375 -0.78125 L 0.734375 -3.640625 L 0.203125 -3.890625 L 0.203125 -4.421875 L 2.21875 -4.421875 L 2.21875 -3.890625 L 1.671875 -3.640625 L 1.671875 -0.78125 L 2.21875 -0.53125 Z M 2.21875 0 "/></g></g></g><g fill="#242a33" fill-opacity="1"><g transform="translate(56.716728, 36.954595)"><g><path d="M 4.125 0 L 3.046875 0 L 1.890625 -1.859375 L 1.5 -1.578125 L 1.5 0 L 0.5625 0 L 0.5625 -4.421875 L 1.5 -4.421875 L 1.5 -2.40625 C 1.5625 -2.488281 1.625 -2.570312 1.6875 -2.65625 C 1.75 -2.75 1.804688 -2.835938 1.859375 -2.921875 L 3.0625 -4.421875 L 4.109375 -4.421875 L 2.5625 -2.46875 Z M 4.125 0 "/></g></g></g><g fill="#242a33" fill-opacity="1"><g transform="translate(61.999184, 36.954595)"><g><path d="M 4.578125 -2.21875 C 4.578125 -1.757812 4.5 -1.359375 4.34375 -1.015625 C 4.195312 -0.679688 3.96875 -0.414062 3.65625 -0.21875 C 3.34375 -0.03125 2.945312 0.0625 2.46875 0.0625 C 1.988281 0.0625 1.59375 -0.03125 1.28125 -0.21875 C 0.96875 -0.414062 0.734375 -0.679688 0.578125 -1.015625 C 0.429688 -1.359375 0.359375 -1.765625 0.359375 -2.234375 C 0.359375 -2.691406 0.429688 -3.085938 0.578125 -3.421875 C 0.734375 -3.765625 0.96875 -4.03125 1.28125 -4.21875 C 1.59375 -4.40625 1.988281 -4.5 2.46875 -4.5 C 2.945312 -4.5 3.34375 -4.40625 3.65625 -4.21875 C 3.96875 -4.03125 4.195312 -3.765625 4.34375 -3.421875 C 4.5 -3.078125 4.578125 -2.675781 4.578125 -2.21875 Z M 1.34375 -2.21875 C 1.34375 -1.757812 1.429688 -1.394531 1.609375 -1.125 C 1.785156 -0.851562 2.070312 -0.71875 2.46875 -0.71875 C 2.875 -0.71875 3.160156 -0.851562 3.328125 -1.125 C 3.503906 -1.394531 3.59375 -1.757812 3.59375 -2.21875 C 3.59375 -2.6875 3.503906 -3.050781 3.328125 -3.3125 C 3.160156 -3.582031 2.875 -3.71875 2.46875 -3.71875 C 2.070312 -3.71875 1.785156 -3.582031 1.609375 -3.3125 C 1.429688 -3.050781 1.34375 -2.6875 1.34375 -2.21875 Z M 1.34375 -2.21875 "/></g></g></g><g fill="#242a33" fill-opacity="1"><g transform="translate(68.100045, 36.954595)"><g/></g></g><g fill="#242a33" fill-opacity="1"><g transform="translate(71.001671, 36.954595)"><g><path d="M 4.234375 -4.34375 C 4.335938 -4.34375 4.425781 -4.304688 4.5 -4.234375 C 4.570312 -4.160156 4.609375 -4.070312 4.609375 -3.96875 L 4.609375 -0.375 C 4.609375 -0.269531 4.570312 -0.179688 4.5 -0.109375 C 4.4375 -0.0351562 4.347656 0 4.234375 0 C 4.117188 0 4.023438 -0.03125 3.953125 -0.09375 C 3.878906 -0.164062 3.84375 -0.257812 3.84375 -0.375 L 3.84375 -2.875 L 2.8125 -1.3125 C 2.769531 -1.257812 2.722656 -1.21875 2.671875 -1.1875 C 2.617188 -1.15625 2.5625 -1.144531 2.5 -1.15625 C 2.445312 -1.144531 2.394531 -1.15625 2.34375 -1.1875 C 2.289062 -1.21875 2.242188 -1.257812 2.203125 -1.3125 L 1.171875 -2.9375 L 1.171875 -0.375 C 1.171875 -0.257812 1.140625 -0.164062 1.078125 -0.09375 C 1.015625 -0.03125 0.925781 0 0.8125 0 C 0.707031 0 0.625 -0.0351562 0.5625 -0.109375 C 0.5 -0.179688 0.46875 -0.269531 0.46875 -0.375 L 0.46875 -3.96875 C 0.46875 -4.070312 0.503906 -4.160156 0.578125 -4.234375 C 0.648438 -4.304688 0.742188 -4.34375 0.859375 -4.34375 C 0.921875 -4.34375 0.984375 -4.328125 1.046875 -4.296875 C 1.109375 -4.265625 1.15625 -4.226562 1.1875 -4.1875 L 2.53125 -2.109375 L 3.921875 -4.1875 C 3.953125 -4.226562 3.992188 -4.265625 4.046875 -4.296875 C 4.109375 -4.328125 4.171875 -4.34375 4.234375 -4.34375 Z M 4.234375 -4.34375 "/></g></g></g><g fill="#242a33" fill-opacity="1"><g transform="translate(77.245129, 36.954595)"><g><path d="M 3.875 -0.484375 C 3.894531 -0.429688 3.90625 -0.378906 3.90625 -0.328125 C 3.90625 -0.222656 3.867188 -0.132812 3.796875 -0.0625 C 3.722656 0 3.640625 0.03125 3.546875 0.03125 C 3.472656 0.03125 3.40625 0.0078125 3.34375 -0.03125 C 3.289062 -0.0820312 3.25 -0.144531 3.21875 -0.21875 L 2.890625 -0.96875 L 1.046875 -0.96875 L 0.71875 -0.21875 C 0.6875 -0.132812 0.640625 -0.0703125 0.578125 -0.03125 C 0.523438 0.0078125 0.460938 0.03125 0.390625 0.03125 C 0.285156 0.03125 0.203125 0.00390625 0.140625 -0.046875 C 0.0859375 -0.109375 0.0625 -0.191406 0.0625 -0.296875 C 0.0625 -0.328125 0.0664062 -0.363281 0.078125 -0.40625 L 1.625 -4.125 C 1.65625 -4.207031 1.703125 -4.269531 1.765625 -4.3125 C 1.835938 -4.351562 1.914062 -4.367188 2 -4.359375 C 2.070312 -4.359375 2.140625 -4.335938 2.203125 -4.296875 C 2.265625 -4.253906 2.3125 -4.195312 2.34375 -4.125 Z M 1.34375 -1.6875 L 2.59375 -1.6875 L 1.953125 -3.140625 Z M 1.34375 -1.6875 "/></g></g></g><g fill="#242a33" fill-opacity="1"><g transform="translate(82.37258, 36.954595)"><g><path d="M 3.875 -0.609375 C 3.925781 -0.578125 3.96875 -0.53125 4 -0.46875 C 4.03125 -0.414062 4.046875 -0.363281 4.046875 -0.3125 C 4.046875 -0.238281 4.019531 -0.171875 3.96875 -0.109375 C 3.90625 -0.0351562 3.8125 0 3.6875 0 C 3.582031 0 3.488281 -0.0195312 3.40625 -0.0625 C 3.113281 -0.226562 2.96875 -0.570312 2.96875 -1.09375 C 2.96875 -1.25 2.914062 -1.367188 2.8125 -1.453125 C 2.71875 -1.535156 2.582031 -1.578125 2.40625 -1.578125 L 1.234375 -1.578125 L 1.234375 -0.375 C 1.234375 -0.257812 1.203125 -0.164062 1.140625 -0.09375 C 1.085938 -0.03125 1.007812 0 0.90625 0 C 0.789062 0 0.6875 -0.0351562 0.59375 -0.109375 C 0.507812 -0.179688 0.46875 -0.269531 0.46875 -0.375 L 0.46875 -3.96875 C 0.46875 -4.070312 0.503906 -4.160156 0.578125 -4.234375 C 0.648438 -4.304688 0.738281 -4.34375 0.84375 -4.34375 L 2.625 -4.34375 C 2.84375 -4.34375 3.046875 -4.285156 3.234375 -4.171875 C 3.421875 -4.054688 3.570312 -3.894531 3.6875 -3.6875 C 3.800781 -3.488281 3.859375 -3.265625 3.859375 -3.015625 C 3.859375 -2.804688 3.800781 -2.601562 3.6875 -2.40625 C 3.582031 -2.207031 3.441406 -2.050781 3.265625 -1.9375 C 3.523438 -1.75 3.664062 -1.503906 3.6875 -1.203125 C 3.695312 -1.140625 3.703125 -1.078125 3.703125 -1.015625 C 3.722656 -0.878906 3.738281 -0.785156 3.75 -0.734375 C 3.769531 -0.679688 3.8125 -0.640625 3.875 -0.609375 Z M 2.59375 -2.21875 C 2.664062 -2.21875 2.738281 -2.253906 2.8125 -2.328125 C 2.882812 -2.398438 2.941406 -2.492188 2.984375 -2.609375 C 3.035156 -2.722656 3.0625 -2.847656 3.0625 -2.984375 C 3.0625 -3.097656 3.035156 -3.203125 2.984375 -3.296875 C 2.941406 -3.398438 2.882812 -3.476562 2.8125 -3.53125 C 2.738281 -3.59375 2.664062 -3.625 2.59375 -3.625 L 1.234375 -3.625 L 1.234375 -2.21875 Z M 2.59375 -2.21875 "/></g></g></g><g fill="#242a33" fill-opacity="1"><g transform="translate(87.797635, 36.954595)"><g><path d="M 3.796875 -0.640625 C 3.816406 -0.609375 3.832031 -0.566406 3.84375 -0.515625 C 3.863281 -0.472656 3.875 -0.429688 3.875 -0.390625 C 3.875 -0.273438 3.832031 -0.179688 3.75 -0.109375 C 3.664062 -0.0351562 3.566406 0 3.453125 0 C 3.398438 0 3.347656 -0.0078125 3.296875 -0.03125 C 3.242188 -0.0625 3.203125 -0.0976562 3.171875 -0.140625 L 1.828125 -1.921875 L 1.234375 -1.359375 L 1.234375 -0.375 C 1.234375 -0.257812 1.195312 -0.164062 1.125 -0.09375 C 1.0625 -0.03125 0.96875 0 0.84375 0 C 0.738281 0 0.648438 -0.0351562 0.578125 -0.109375 C 0.503906 -0.179688 0.46875 -0.269531 0.46875 -0.375 L 0.46875 -3.96875 C 0.46875 -4.070312 0.503906 -4.160156 0.578125 -4.234375 C 0.648438 -4.304688 0.742188 -4.34375 0.859375 -4.34375 C 0.972656 -4.34375 1.0625 -4.304688 1.125 -4.234375 C 1.195312 -4.160156 1.234375 -4.070312 1.234375 -3.96875 L 1.234375 -2.28125 L 3.21875 -4.234375 C 3.320312 -4.328125 3.425781 -4.375 3.53125 -4.375 C 3.625 -4.375 3.703125 -4.332031 3.765625 -4.25 C 3.835938 -4.175781 3.875 -4.09375 3.875 -4 C 3.875 -3.914062 3.835938 -3.835938 3.765625 -3.765625 L 2.40625 -2.46875 Z M 3.796875 -0.640625 "/></g></g></g><g fill="#242a33" fill-opacity="1"><g transform="translate(93.024287, 36.954595)"><g><path d="M 2.921875 -0.71875 C 3.023438 -0.71875 3.113281 -0.679688 3.1875 -0.609375 C 3.257812 -0.535156 3.296875 -0.453125 3.296875 -0.359375 C 3.296875 -0.253906 3.257812 -0.164062 3.1875 -0.09375 C 3.113281 -0.03125 3.023438 0 2.921875 0 L 0.84375 0 C 0.738281 0 0.648438 -0.0351562 0.578125 -0.109375 C 0.503906 -0.179688 0.46875 -0.269531 0.46875 -0.375 L 0.46875 -3.96875 C 0.46875 -4.070312 0.503906 -4.160156 0.578125 -4.234375 C 0.648438 -4.304688 0.738281 -4.34375 0.84375 -4.34375 L 2.921875 -4.34375 C 3.023438 -4.34375 3.113281 -4.304688 3.1875 -4.234375 C 3.257812 -4.171875 3.296875 -4.082031 3.296875 -3.96875 C 3.296875 -3.875 3.257812 -3.789062 3.1875 -3.71875 C 3.125 -3.65625 3.035156 -3.625 2.921875 -3.625 L 1.234375 -3.625 L 1.234375 -2.578125 L 2.640625 -2.578125 C 2.742188 -2.578125 2.832031 -2.539062 2.90625 -2.46875 C 2.976562 -2.40625 3.015625 -2.316406 3.015625 -2.203125 C 3.015625 -2.097656 2.976562 -2.015625 2.90625 -1.953125 C 2.84375 -1.890625 2.753906 -1.859375 2.640625 -1.859375 L 1.234375 -1.859375 L 1.234375 -0.71875 Z M 2.921875 -0.71875 "/></g></g></g><g fill="#242a33" fill-opacity="1"><g transform="translate(97.736328, 36.954595)"><g><path d="M 3.3125 -4.34375 C 3.425781 -4.34375 3.519531 -4.304688 3.59375 -4.234375 C 3.664062 -4.171875 3.703125 -4.085938 3.703125 -3.984375 C 3.703125 -3.878906 3.664062 -3.789062 3.59375 -3.71875 C 3.519531 -3.65625 3.425781 -3.625 3.3125 -3.625 L 2.34375 -3.625 L 2.34375 -0.375 C 2.34375 -0.269531 2.300781 -0.179688 2.21875 -0.109375 C 2.144531 -0.0351562 2.050781 0 1.9375 0 C 1.820312 0 1.722656 -0.0351562 1.640625 -0.109375 C 1.566406 -0.179688 1.53125 -0.269531 1.53125 -0.375 L 1.53125 -3.625 L 0.5625 -3.625 C 0.445312 -3.625 0.351562 -3.65625 0.28125 -3.71875 C 0.21875 -3.789062 0.1875 -3.878906 0.1875 -3.984375 C 0.1875 -4.085938 0.222656 -4.171875 0.296875 -4.234375 C 0.367188 -4.304688 0.457031 -4.34375 0.5625 -4.34375 Z M 3.3125 -4.34375 "/></g></g></g><g fill="#242a33" fill-opacity="1"><g transform="translate(102.783176, 36.954595)"><g><path d="M 1.234375 -0.375 C 1.234375 -0.269531 1.191406 -0.179688 1.109375 -0.109375 C 1.035156 -0.0351562 0.945312 0 0.84375 0 C 0.738281 0 0.648438 -0.0351562 0.578125 -0.109375 C 0.503906 -0.179688 0.46875 -0.269531 0.46875 -0.375 L 0.46875 -3.96875 C 0.46875 -4.070312 0.503906 -4.160156 0.578125 -4.234375 C 0.648438 -4.304688 0.742188 -4.34375 0.859375 -4.34375 C 0.960938 -4.34375 1.050781 -4.304688 1.125 -4.234375 C 1.195312 -4.160156 1.234375 -4.070312 1.234375 -3.96875 Z M 1.234375 -0.375 "/></g></g></g><g fill="#242a33" fill-opacity="1"><g transform="translate(105.653795, 36.954595)"><g><path d="M 3.765625 -4.34375 C 3.859375 -4.34375 3.9375 -4.304688 4 -4.234375 C 4.0625 -4.171875 4.09375 -4.09375 4.09375 -4 L 4.09375 -0.375 C 4.09375 -0.269531 4.054688 -0.179688 3.984375 -0.109375 C 3.910156 -0.0351562 3.820312 0 3.71875 0 C 3.65625 0 3.597656 -0.0078125 3.546875 -0.03125 C 3.492188 -0.0507812 3.453125 -0.078125 3.421875 -0.109375 L 1.140625 -3 L 1.140625 -0.34375 C 1.140625 -0.25 1.109375 -0.164062 1.046875 -0.09375 C 0.984375 -0.03125 0.898438 0 0.796875 0 C 0.703125 0 0.625 -0.03125 0.5625 -0.09375 C 0.5 -0.164062 0.46875 -0.25 0.46875 -0.34375 L 0.46875 -3.96875 C 0.46875 -4.070312 0.503906 -4.160156 0.578125 -4.234375 C 0.648438 -4.304688 0.738281 -4.34375 0.84375 -4.34375 C 0.90625 -4.34375 0.960938 -4.328125 1.015625 -4.296875 C 1.078125 -4.273438 1.125 -4.242188 1.15625 -4.203125 L 3.421875 -1.328125 L 3.421875 -4 C 3.421875 -4.09375 3.453125 -4.171875 3.515625 -4.234375 C 3.578125 -4.304688 3.660156 -4.34375 3.765625 -4.34375 Z M 3.765625 -4.34375 "/></g></g></g><g fill="#242a33" fill-opacity="1"><g transform="translate(111.376453, 36.954595)"><g><path d="M 3.671875 -2.34375 C 3.773438 -2.34375 3.859375 -2.304688 3.921875 -2.234375 C 3.992188 -2.160156 4.03125 -2.070312 4.03125 -1.96875 L 4.03125 -0.65625 C 4.03125 -0.507812 3.96875 -0.394531 3.84375 -0.3125 C 3.4375 -0.0625 2.992188 0.0625 2.515625 0.0625 C 2.097656 0.0625 1.71875 -0.0351562 1.375 -0.234375 C 1.03125 -0.441406 0.753906 -0.710938 0.546875 -1.046875 C 0.347656 -1.390625 0.25 -1.765625 0.25 -2.171875 C 0.25 -2.578125 0.347656 -2.945312 0.546875 -3.28125 C 0.753906 -3.625 1.03125 -3.894531 1.375 -4.09375 C 1.71875 -4.300781 2.097656 -4.40625 2.515625 -4.40625 C 2.921875 -4.40625 3.273438 -4.320312 3.578125 -4.15625 C 3.640625 -4.125 3.6875 -4.078125 3.71875 -4.015625 C 3.75 -3.960938 3.765625 -3.910156 3.765625 -3.859375 C 3.765625 -3.753906 3.726562 -3.660156 3.65625 -3.578125 C 3.59375 -3.503906 3.507812 -3.46875 3.40625 -3.46875 C 3.34375 -3.46875 3.273438 -3.484375 3.203125 -3.515625 C 2.984375 -3.609375 2.753906 -3.65625 2.515625 -3.65625 C 2.242188 -3.65625 2 -3.585938 1.78125 -3.453125 C 1.5625 -3.316406 1.382812 -3.132812 1.25 -2.90625 C 1.113281 -2.6875 1.046875 -2.441406 1.046875 -2.171875 C 1.046875 -1.898438 1.113281 -1.648438 1.25 -1.421875 C 1.382812 -1.191406 1.5625 -1.007812 1.78125 -0.875 C 2 -0.75 2.242188 -0.6875 2.515625 -0.6875 C 2.628906 -0.6875 2.75 -0.695312 2.875 -0.71875 C 3.007812 -0.738281 3.128906 -0.765625 3.234375 -0.796875 L 3.234375 -1.59375 L 2.65625 -1.59375 C 2.539062 -1.59375 2.445312 -1.628906 2.375 -1.703125 C 2.300781 -1.773438 2.265625 -1.863281 2.265625 -1.96875 C 2.265625 -2.082031 2.300781 -2.171875 2.375 -2.234375 C 2.445312 -2.304688 2.539062 -2.34375 2.65625 -2.34375 Z M 3.671875 -2.34375 "/></g></g></g><g fill="#000000" fill-opacity="1"><g transform="translate(11.001406, 24.194423)"><g><path d="M 1.203125 -16.5 L 5.984375 -16.5 C 8.273438 -16.5 10.234375 -15.710938 11.859375 -14.140625 C 13.484375 -12.578125 14.296875 -10.617188 14.296875 -8.265625 C 14.296875 -5.890625 13.484375 -3.914062 11.859375 -2.34375 C 10.242188 -0.78125 8.285156 0 5.984375 0 L 1.203125 0 Z M 4.953125 -3.359375 L 5.546875 -3.359375 C 6.910156 -3.359375 8.03125 -3.820312 8.90625 -4.75 C 9.78125 -5.675781 10.222656 -6.835938 10.234375 -8.234375 C 10.234375 -9.640625 9.796875 -10.804688 8.921875 -11.734375 C 8.054688 -12.671875 6.929688 -13.140625 5.546875 -13.140625 L 4.953125 -13.140625 Z M 4.953125 -3.359375 "/></g></g></g><g fill="#000000" fill-opacity="1"><g transform="translate(23.875584, 24.194423)"><g><path d="M 2.15625 -1.21875 C 1.019531 -2.226562 0.453125 -3.523438 0.453125 -5.109375 C 0.453125 -6.703125 1.046875 -8.007812 2.234375 -9.03125 C 3.421875 -10.050781 4.890625 -10.5625 6.640625 -10.5625 C 8.359375 -10.5625 9.804688 -10.046875 10.984375 -9.015625 C 12.171875 -7.992188 12.765625 -6.695312 12.765625 -5.125 C 12.765625 -3.550781 12.1875 -2.253906 11.03125 -1.234375 C 9.875 -0.210938 8.410156 0.296875 6.640625 0.296875 C 4.796875 0.296875 3.300781 -0.207031 2.15625 -1.21875 Z M 4.90625 -6.859375 C 4.445312 -6.410156 4.21875 -5.832031 4.21875 -5.125 C 4.21875 -4.414062 4.4375 -3.835938 4.875 -3.390625 C 5.320312 -2.941406 5.90625 -2.71875 6.625 -2.71875 C 7.3125 -2.71875 7.878906 -2.941406 8.328125 -3.390625 C 8.773438 -3.847656 9 -4.425781 9 -5.125 C 9 -5.832031 8.769531 -6.410156 8.3125 -6.859375 C 7.851562 -7.316406 7.289062 -7.546875 6.625 -7.546875 C 5.9375 -7.546875 5.363281 -7.316406 4.90625 -6.859375 Z M 4.90625 -6.859375 "/></g></g></g><g fill="#000000" fill-opacity="1"><g transform="translate(35.210371, 24.194423)"><g><path d="M 6.65625 -7.65625 C 5.988281 -7.65625 5.414062 -7.410156 4.9375 -6.921875 C 4.457031 -6.429688 4.21875 -5.835938 4.21875 -5.140625 C 4.21875 -4.429688 4.457031 -3.828125 4.9375 -3.328125 C 5.414062 -2.835938 5.988281 -2.59375 6.65625 -2.59375 C 6.976562 -2.59375 7.28125 -2.632812 7.5625 -2.71875 C 7.851562 -2.800781 8.066406 -2.878906 8.203125 -2.953125 L 8.375 -3.078125 L 9.578125 -0.625 C 9.484375 -0.550781 9.351562 -0.460938 9.1875 -0.359375 C 9.019531 -0.265625 8.640625 -0.132812 8.046875 0.03125 C 7.453125 0.207031 6.816406 0.296875 6.140625 0.296875 C 4.628906 0.296875 3.300781 -0.226562 2.15625 -1.28125 C 1.019531 -2.34375 0.453125 -3.613281 0.453125 -5.09375 C 0.453125 -6.59375 1.019531 -7.878906 2.15625 -8.953125 C 3.300781 -10.023438 4.628906 -10.5625 6.140625 -10.5625 C 6.816406 -10.5625 7.441406 -10.476562 8.015625 -10.3125 C 8.585938 -10.15625 8.992188 -10 9.234375 -9.84375 L 9.578125 -9.59375 L 8.375 -7.1875 C 7.9375 -7.5 7.363281 -7.65625 6.65625 -7.65625 Z M 6.65625 -7.65625 "/></g></g></g><g fill="#000000" fill-opacity="1"><g transform="translate(43.14649, 24.194423)"><g><path d="M 1.796875 -10.265625 L 1.796875 -14.078125 L 5.34375 -14.078125 L 5.34375 -10.265625 L 7.5 -10.265625 L 7.5 -7.5625 L 5.34375 -7.5625 L 5.34375 -4.296875 C 5.34375 -3.347656 5.609375 -2.875 6.140625 -2.875 C 6.273438 -2.875 6.414062 -2.898438 6.5625 -2.953125 C 6.707031 -3.015625 6.820312 -3.070312 6.90625 -3.125 L 7.015625 -3.203125 L 7.90625 -0.34375 C 7.144531 0.0820312 6.273438 0.296875 5.296875 0.296875 C 4.628906 0.296875 4.054688 0.179688 3.578125 -0.046875 C 3.097656 -0.285156 2.734375 -0.597656 2.484375 -0.984375 C 2.242188 -1.378906 2.066406 -1.789062 1.953125 -2.21875 C 1.847656 -2.65625 1.796875 -3.125 1.796875 -3.625 L 1.796875 -7.5625 L 0.3125 -7.5625 L 0.3125 -10.265625 Z M 1.796875 -10.265625 "/></g></g></g><g fill="#000000" fill-opacity="1"><g transform="translate(49.169372, 24.194423)"><g/></g></g><g fill="#000000" fill-opacity="1"><g transform="translate(52.747217, 24.194423)"><g/></g></g><g fill="#000000" fill-opacity="1"><g transform="translate(56.325062, 24.194423)"><g/></g></g><g fill="#000000" fill-opacity="1"><g transform="translate(59.902907, 24.194423)"><g/></g></g><g fill="#000000" fill-opacity="1"><g transform="translate(63.480752, 24.194423)"><g/></g></g><g fill="#000000" fill-opacity="1"><g transform="translate(67.058597, 24.194423)"><g/></g></g><g fill="#000000" fill-opacity="1"><g transform="translate(70.638121, 24.194423)"><g><path d="M 1.203125 0 L 1.203125 -10.265625 L 4.734375 -10.265625 L 4.734375 -8.78125 L 4.78125 -8.78125 C 4.800781 -8.832031 4.84375 -8.894531 4.90625 -8.96875 C 4.96875 -9.050781 5.097656 -9.191406 5.296875 -9.390625 C 5.492188 -9.597656 5.707031 -9.78125 5.9375 -9.9375 C 6.164062 -10.101562 6.457031 -10.25 6.8125 -10.375 C 7.175781 -10.5 7.546875 -10.5625 7.921875 -10.5625 C 8.304688 -10.5625 8.6875 -10.503906 9.0625 -10.390625 C 9.4375 -10.285156 9.707031 -10.179688 9.875 -10.078125 L 10.15625 -9.921875 L 8.6875 -6.921875 C 8.238281 -7.296875 7.625 -7.484375 6.84375 -7.484375 C 6.414062 -7.484375 6.046875 -7.390625 5.734375 -7.203125 C 5.429688 -7.015625 5.21875 -6.785156 5.09375 -6.515625 C 4.96875 -6.253906 4.875 -6.03125 4.8125 -5.84375 C 4.757812 -5.65625 4.734375 -5.507812 4.734375 -5.40625 L 4.734375 0 Z M 1.203125 0 "/></g></g></g><g fill="#000000" fill-opacity="1"><g transform="translate(78.714192, 24.194423)"><g/></g></g><g fill="#000000" fill-opacity="1"><g transform="translate(82.292037, 24.194423)"><g><path d="M 1.203125 -16.5 L 5.984375 -16.5 C 8.273438 -16.5 10.234375 -15.710938 11.859375 -14.140625 C 13.484375 -12.578125 14.296875 -10.617188 14.296875 -8.265625 C 14.296875 -5.890625 13.484375 -3.914062 11.859375 -2.34375 C 10.242188 -0.78125 8.285156 0 5.984375 0 L 1.203125 0 Z M 4.953125 -3.359375 L 5.546875 -3.359375 C 6.910156 -3.359375 8.03125 -3.820312 8.90625 -4.75 C 9.78125 -5.675781 10.222656 -6.835938 10.234375 -8.234375 C 10.234375 -9.640625 9.796875 -10.804688 8.921875 -11.734375 C 8.054688 -12.671875 6.929688 -13.140625 5.546875 -13.140625 L 4.953125 -13.140625 Z M 4.953125 -3.359375 "/></g></g></g><g fill="#000000" fill-opacity="1"><g transform="translate(95.166213, 24.194423)"><g><path d="M 1.53125 -15.96875 C 1.945312 -16.382812 2.441406 -16.59375 3.015625 -16.59375 C 3.585938 -16.59375 4.082031 -16.382812 4.5 -15.96875 C 4.914062 -15.5625 5.125 -15.070312 5.125 -14.5 C 5.125 -13.925781 4.914062 -13.429688 4.5 -13.015625 C 4.082031 -12.609375 3.585938 -12.40625 3.015625 -12.40625 C 2.441406 -12.40625 1.945312 -12.609375 1.53125 -13.015625 C 1.125 -13.429688 0.921875 -13.925781 0.921875 -14.5 C 0.921875 -15.070312 1.125 -15.5625 1.53125 -15.96875 Z M 1.203125 -10.265625 L 1.203125 0 L 4.734375 0 L 4.734375 -10.265625 Z M 1.203125 -10.265625 "/></g></g></g><g fill="#000000" fill-opacity="1"><g transform="translate(99.323828, 24.194423)"><g><path d="M 0.734375 2.515625 L 3.640625 1.09375 C 4.171875 1.976562 5.097656 2.421875 6.421875 2.421875 C 7.035156 2.421875 7.601562 2.222656 8.125 1.828125 C 8.65625 1.429688 8.921875 0.828125 8.921875 0.015625 L 8.921875 -0.734375 C 8.296875 -0.046875 7.175781 0.296875 5.5625 0.296875 C 4.082031 0.296875 2.859375 -0.222656 1.890625 -1.265625 C 0.929688 -2.316406 0.453125 -3.601562 0.453125 -5.125 C 0.453125 -6.644531 0.929688 -7.929688 1.890625 -8.984375 C 2.859375 -10.035156 4.082031 -10.5625 5.5625 -10.5625 C 6.882812 -10.5625 7.984375 -10.15625 8.859375 -9.34375 L 8.921875 -9.34375 L 8.921875 -10.265625 L 12.453125 -10.265625 L 12.453125 0.28125 C 12.453125 1.945312 11.898438 3.234375 10.796875 4.140625 C 9.691406 5.046875 8.234375 5.5 6.421875 5.5 C 3.484375 5.5 1.585938 4.503906 0.734375 2.515625 Z M 4.90625 -6.859375 C 4.445312 -6.410156 4.21875 -5.832031 4.21875 -5.125 C 4.21875 -4.414062 4.4375 -3.835938 4.875 -3.390625 C 5.320312 -2.941406 5.90625 -2.71875 6.625 -2.71875 C 7.3125 -2.71875 7.878906 -2.941406 8.328125 -3.390625 C 8.773438 -3.847656 9 -4.425781 9 -5.125 C 9 -5.832031 8.769531 -6.410156 8.3125 -6.859375 C 7.851562 -7.316406 7.289062 -7.546875 6.625 -7.546875 C 5.9375 -7.546875 5.363281 -7.316406 4.90625 -6.859375 Z M 4.90625 -6.859375 "/></g></g></g><g fill="#000000" fill-opacity="1"><g transform="translate(111.098436, 24.194423)"><g><path d="M 1.53125 -15.96875 C 1.945312 -16.382812 2.441406 -16.59375 3.015625 -16.59375 C 3.585938 -16.59375 4.082031 -16.382812 4.5 -15.96875 C 4.914062 -15.5625 5.125 -15.070312 5.125 -14.5 C 5.125 -13.925781 4.914062 -13.429688 4.5 -13.015625 C 4.082031 -12.609375 3.585938 -12.40625 3.015625 -12.40625 C 2.441406 -12.40625 1.945312 -12.609375 1.53125 -13.015625 C 1.125 -13.429688 0.921875 -13.925781 0.921875 -14.5 C 0.921875 -15.070312 1.125 -15.5625 1.53125 -15.96875 Z M 1.203125 -10.265625 L 1.203125 0 L 4.734375 0 L 4.734375 -10.265625 Z M 1.203125 -10.265625 "/></g></g></g><g fill="#000000" fill-opacity="1"><g transform="translate(115.256051, 24.194423)"><g><path d="M 1.796875 -10.265625 L 1.796875 -14.078125 L 5.34375 -14.078125 L 5.34375 -10.265625 L 7.5 -10.265625 L 7.5 -7.5625 L 5.34375 -7.5625 L 5.34375 -4.296875 C 5.34375 -3.347656 5.609375 -2.875 6.140625 -2.875 C 6.273438 -2.875 6.414062 -2.898438 6.5625 -2.953125 C 6.707031 -3.015625 6.820312 -3.070312 6.90625 -3.125 L 7.015625 -3.203125 L 7.90625 -0.34375 C 7.144531 0.0820312 6.273438 0.296875 5.296875 0.296875 C 4.628906 0.296875 4.054688 0.179688 3.578125 -0.046875 C 3.097656 -0.285156 2.734375 -0.597656 2.484375 -0.984375 C 2.242188 -1.378906 2.066406 -1.789062 1.953125 -2.21875 C 1.847656 -2.65625 1.796875 -3.125 1.796875 -3.625 L 1.796875 -7.5625 L 0.3125 -7.5625 L 0.3125 -10.265625 Z M 1.796875 -10.265625 "/></g></g></g><g fill="#000000" fill-opacity="1"><g transform="translate(121.272931, 24.194423)"><g><path d="M 1.890625 -1.265625 C 0.929688 -2.316406 0.453125 -3.601562 0.453125 -5.125 C 0.453125 -6.644531 0.929688 -7.929688 1.890625 -8.984375 C 2.859375 -10.035156 4.082031 -10.5625 5.5625 -10.5625 C 6.914062 -10.5625 8.035156 -10.132812 8.921875 -9.28125 L 8.921875 -10.265625 L 12.453125 -10.265625 L 12.453125 0 L 8.953125 0 L 8.953125 -1.15625 L 8.921875 -1.15625 C 8.035156 -0.1875 6.914062 0.296875 5.5625 0.296875 C 4.082031 0.296875 2.859375 -0.222656 1.890625 -1.265625 Z M 4.90625 -6.859375 C 4.445312 -6.410156 4.21875 -5.832031 4.21875 -5.125 C 4.21875 -4.414062 4.4375 -3.835938 4.875 -3.390625 C 5.320312 -2.941406 5.90625 -2.71875 6.625 -2.71875 C 7.3125 -2.71875 7.878906 -2.941406 8.328125 -3.390625 C 8.773438 -3.847656 9 -4.425781 9 -5.125 C 9 -5.832031 8.769531 -6.410156 8.3125 -6.859375 C 7.851562 -7.316406 7.289062 -7.546875 6.625 -7.546875 C 5.9375 -7.546875 5.363281 -7.316406 4.90625 -6.859375 Z M 4.90625 -6.859375 "/></g></g></g><g fill="#000000" fill-opacity="1"><g transform="translate(133.047539, 24.194423)"><g><path d="M 1.203125 0 L 1.203125 -17.203125 L 4.734375 -17.203125 L 4.734375 0 Z M 1.203125 0 "/></g></g></g><g clip-path="url(#b17d18b396)"><path fill="#cafc01" d="M 71.175781 21.316406 C 71.175781 21.488281 71.0625 21.636719 70.90625 21.6875 L 67.253906 22.882812 L 66.058594 26.535156 C 66.003906 26.691406 65.855469 26.804688 65.683594 26.804688 C 65.515625 26.804688 65.375 26.699219 65.320312 26.554688 L 62.183594 18.320312 C 62.160156 18.273438 62.15625 18.230469 62.15625 18.175781 C 62.15625 17.960938 62.332031 17.785156 62.546875 17.785156 C 62.597656 17.785156 62.644531 17.792969 62.6875 17.8125 L 70.925781 20.949219 C 71.070312 21.003906 71.175781 21.144531 71.175781 21.316406 Z M 71.175781 21.316406 " fill-opacity="1" fill-rule="nonzero"/></g><g clip-path="url(#0b4f3658dc)"><path fill="#000000" d="M 61.402344 25.304688 C 56.84375 25.304688 53.132812 21.59375 53.132812 17.035156 C 53.132812 12.472656 56.84375 8.765625 61.402344 8.765625 C 65.960938 8.765625 69.671875 12.472656 69.671875 17.035156 C 69.671875 17.402344 69.648438 17.765625 69.601562 18.109375 C 69.542969 18.519531 69.164062 18.808594 68.753906 18.75 C 68.339844 18.695312 68.054688 18.316406 68.113281 17.90625 C 68.148438 17.625 68.167969 17.332031 68.167969 17.035156 C 68.167969 13.304688 65.132812 10.269531 61.402344 10.269531 C 57.671875 10.269531 54.636719 13.304688 54.636719 17.035156 C 54.636719 20.761719 57.671875 23.800781 61.402344 23.800781 C 61.699219 23.800781 61.992188 23.78125 62.273438 23.742188 C 62.683594 23.683594 63.066406 23.972656 63.121094 24.382812 C 63.175781 24.796875 62.890625 25.175781 62.476562 25.230469 C 62.128906 25.277344 61.769531 25.304688 61.402344 25.304688 Z M 61.402344 25.304688 " fill-opacity="1" fill-rule="nonzero"/></g><path fill="#000000" d="M 61.046875 21.53125 C 61.023438 21.53125 61 21.53125 60.976562 21.53125 C 58.640625 21.3125 56.882812 19.378906 56.882812 17.03125 C 56.882812 14.539062 58.910156 12.511719 61.402344 12.511719 C 63.757812 12.511719 65.691406 14.277344 65.898438 16.617188 C 65.9375 17.027344 65.632812 17.394531 65.21875 17.429688 C 64.789062 17.460938 64.4375 17.160156 64.402344 16.75 C 64.261719 15.191406 62.972656 14.015625 61.402344 14.015625 C 59.738281 14.015625 58.382812 15.367188 58.382812 17.03125 C 58.382812 18.597656 59.558594 19.886719 61.113281 20.03125 C 61.527344 20.070312 61.832031 20.4375 61.792969 20.851562 C 61.757812 21.242188 61.429688 21.53125 61.046875 21.53125 Z M 61.046875 21.53125 " fill-opacity="1" fill-rule="nonzero"/></svg>