<svg xmlns="http://www.w3.org/2000/svg" xmlns:xlink="http://www.w3.org/1999/xlink" viewBox="0,0,256,256" width="50px" height="50px" fill-rule="nonzero"><g fill="#393939" fill-rule="nonzero" stroke="none" stroke-width="1" stroke-linecap="butt" stroke-linejoin="miter" stroke-miterlimit="10" stroke-dasharray="" stroke-dashoffset="0" font-family="none" font-weight="none" font-size="none" text-anchor="none" style="mix-blend-mode: normal"><g transform="scale(5.12,5.12)"><path d="M7.90625,1.96875c-0.04297,0.00781 -0.08594,0.01953 -0.125,0.03125c-0.46484,0.10547 -0.79297,0.52344 -0.78125,1v7h-2c-1.64453,0 -3,1.35547 -3,3v2c0,1.64453 1.35547,3 3,3h6c1.64453,0 3,-1.35547 3,-3v-2c0,-1.64453 -1.35547,-3 -3,-3h-2v-7c0.01172,-0.28906 -0.10547,-0.56641 -0.3125,-0.76172c-0.21094,-0.19922 -0.49609,-0.29688 -0.78125,-0.26953zM24.90625,1.96875c-0.04297,0.00781 -0.08594,0.01953 -0.125,0.03125c-0.46484,0.10547 -0.79297,0.52344 -0.78125,1v28h-2c-1.64453,0 -3,1.35547 -3,3v2c0,1.64453 1.35547,3 3,3h6c1.64453,0 3,-1.35547 3,-3v-2c0,-1.64453 -1.35547,-3 -3,-3h-2v-28c0.01172,-0.28906 -0.10547,-0.56641 -0.3125,-0.76172c-0.21094,-0.19922 -0.49609,-0.29688 -0.78125,-0.26953zM41.90625,1.96875c-0.04297,0.00781 -0.08594,0.01953 -0.125,0.03125c-0.46484,0.10547 -0.79297,0.52344 -0.78125,1v10h-2c-1.64453,0 -3,1.35547 -3,3v2c0,1.64453 1.35547,3 3,3h6c1.64453,0 3,-1.35547 3,-3v-2c0,-1.64453 -1.35547,-3 -3,-3h-2v-10c0.01172,-0.28906 -0.10547,-0.56641 -0.3125,-0.76172c-0.21094,-0.19922 -0.49609,-0.29688 -0.78125,-0.26953zM5,12h6c0.56641,0 1,0.43359 1,1v2c0,0.56641 -0.43359,1 -1,1h-6c-0.56641,0 -1,-0.43359 -1,-1v-2c0,-0.56641 0.43359,-1 1,-1zM39,15h6c0.56641,0 1,0.43359 1,1v2c0,0.56641 -0.43359,1 -1,1h-6c-0.56641,0 -1,-0.43359 -1,-1v-2c0,-0.56641 0.43359,-1 1,-1zM7,19v6.8125c-0.00781,0.0625 -0.00781,0.125 0,0.1875v21c-0.00391,0.35938 0.18359,0.69531 0.49609,0.87891c0.3125,0.17969 0.69531,0.17969 1.00781,0c0.3125,-0.18359 0.5,-0.51953 0.49609,-0.87891v-21c0.00781,-0.0625 0.00781,-0.125 0,-0.1875v-6.8125zM41,22v6.8125c-0.00781,0.0625 -0.00781,0.125 0,0.1875v18c-0.00391,0.35938 0.18359,0.69531 0.49609,0.87891c0.3125,0.17969 0.69531,0.17969 1.00781,0c0.3125,-0.18359 0.5,-0.51953 0.49609,-0.87891v-18c0.00781,-0.0625 0.00781,-0.125 0,-0.1875v-6.8125zM22,33h6c0.56641,0 1,0.43359 1,1v2c0,0.56641 -0.43359,1 -1,1h-6c-0.56641,0 -1,-0.43359 -1,-1v-2c0,-0.56641 0.43359,-1 1,-1zM24,40v1.8125c-0.00781,0.0625 -0.00781,0.125 0,0.1875v5c-0.00391,0.35938 0.18359,0.69531 0.49609,0.87891c0.3125,0.17969 0.69531,0.17969 1.00781,0c0.3125,-0.18359 0.5,-0.51953 0.49609,-0.87891v-5c0.00781,-0.0625 0.00781,-0.125 0,-0.1875v-1.8125z"></path></g></g></svg>