<svg xmlns="http://www.w3.org/2000/svg" xmlns:xlink="http://www.w3.org/1999/xlink" viewBox="0,0,256,256" width="80px" height="80px" fill-rule="nonzero"><g fill="#393939" fill-rule="nonzero" stroke="none" stroke-width="1" stroke-linecap="butt" stroke-linejoin="miter" stroke-miterlimit="10" stroke-dasharray="" stroke-dashoffset="0" font-family="none" font-weight="none" font-size="none" text-anchor="none" style="mix-blend-mode: normal"><g transform="scale(3.2,3.2)"><path d="M27,7c-2.19922,0 -4,1.80078 -4,4c0,0.67969 0.1875,1.3125 0.49219,1.875l-7.33594,6.76953c-0.62109,-0.40234 -1.36328,-0.64453 -2.15625,-0.64453c-2.19922,0 -4,1.80078 -4,4c0,2.19922 1.80078,4 4,4c2.19922,0 4,-1.80078 4,-4c0,-0.67969 -0.1875,-1.3125 -0.49219,-1.875l7.33203,-6.76953c0.625,0.40234 1.36328,0.64453 2.16016,0.64453c0.68359,0 1.32031,-0.19141 1.88672,-0.5l7.75391,8.35547c-0.40234,0.62109 -0.64062,1.35547 -0.64062,2.14453c0,2.19922 1.80078,4 4,4c2.19922,0 4,-1.80078 4,-4c0,-0.28516 -0.03516,-0.56641 -0.09375,-0.83594l5.09766,-2.54687c0.73438,0.83984 1.80078,1.38281 2.99609,1.38281c2.19922,0 4,-1.80078 4,-4c0,-0.375 -0.07031,-0.73437 -0.16797,-1.07812l5.33203,-3.10937c0.72656,0.73047 1.73047,1.1875 2.83594,1.1875c2.19922,0 4,-1.80078 4,-4c0,-2.19922 -1.80078,-4 -4,-4c-2.19922,0 -4,1.80078 -4,4c0,0.375 0.07031,0.73047 0.16797,1.07813l-5.33594,3.10938c-0.72266,-0.73047 -1.72656,-1.1875 -2.83203,-1.1875c-2.19922,0 -4,1.80078 -4,4c0,0.28516 0.03516,0.56641 0.09375,0.83594l-5.09766,2.55078c-0.73437,-0.84375 -1.80078,-1.38672 -2.99609,-1.38672c-0.68359,0 -1.32031,0.19141 -1.88672,0.5l-7.75391,-8.35156c0.40234,-0.62109 0.64063,-1.35937 0.64063,-2.14844c0,-2.19922 -1.80078,-4 -4,-4zM27,9c1.11719,0 2,0.88281 2,2c0,1.11719 -0.88281,2 -2,2c-1.11719,0 -2,-0.88281 -2,-2c0,-1.11719 0.88281,-2 2,-2zM64,10c1.11719,0 2,0.88281 2,2c0,1.11719 -0.88281,2 -2,2c-1.11719,0 -2,-0.88281 -2,-2c0,-1.11719 0.88281,-2 2,-2zM52,17c1.11719,0 2,0.88281 2,2c0,1.11719 -0.88281,2 -2,2c-1.11719,0 -2,-0.88281 -2,-2c0,-1.11719 0.88281,-2 2,-2zM14,21c1.11719,0 2,0.88281 2,2c0,1.11719 -0.88281,2 -2,2c-1.11719,0 -2,-0.88281 -2,-2c0,-1.11719 0.88281,-2 2,-2zM40,23c1.11719,0 2,0.88281 2,2c0,1.11719 -0.88281,2 -2,2c-1.11719,0 -2,-0.88281 -2,-2c0,-1.11719 0.88281,-2 2,-2zM22,26.75v44.25h-3v-36.25h-10v36.25h-4v2h70v-2h-4v-42.25h-10v42.25h-3v-33.25h-10v33.25h-3v-27.25h-10v27.25h-3v-44.25zM24,28.75h6v42.25h-6zM63,30.75h6v4.25c-0.55078,0 -1,0.44922 -1,1c0,0.55078 0.44922,1 1,1v4c-0.55078,0 -1,0.44922 -1,1c0,0.55078 0.44922,1 1,1v4c-0.55078,0 -1,0.44922 -1,1c0,0.55078 0.44922,1 1,1v4c-0.55078,0 -1,0.44922 -1,1c0,0.55078 0.44922,1 1,1v4c-0.55078,0 -1,0.44922 -1,1c0,0.55078 0.44922,1 1,1v4c-0.55078,0 -1,0.44922 -1,1c0,0.55078 0.44922,1 1,1v4h-6v-4c0.55078,0 1,-0.44922 1,-1c0,-0.55078 -0.44922,-1 -1,-1v-4c0.55078,0 1,-0.44922 1,-1c0,-0.55078 -0.44922,-1 -1,-1v-4c0.55078,0 1,-0.44922 1,-1c0,-0.55078 -0.44922,-1 -1,-1v-4c0.55078,0 1,-0.44922 1,-1c0,-0.55078 -0.44922,-1 -1,-1v-4c0.55078,0 1,-0.44922 1,-1c0,-0.55078 -0.44922,-1 -1,-1v-4c0.55078,0 1,-0.44922 1,-1c0,-0.55078 -0.44922,-1 -1,-1zM66,32c-0.55078,0 -1,0.44922 -1,1c0,0.55078 0.44922,1 1,1c0.55078,0 1,-0.44922 1,-1c0,-0.55078 -0.44922,-1 -1,-1zM11,36.75h6v4.25c-0.55078,0 -1,0.44922 -1,1c0,0.55078 0.44922,1 1,1v4c-0.55078,0 -1,0.44922 -1,1c0,0.55078 0.44922,1 1,1v4c-0.55078,0 -1,0.44922 -1,1c0,0.55078 0.44922,1 1,1v4c-0.55078,0 -1,0.44922 -1,1c0,0.55078 0.44922,1 1,1v4c-0.55078,0 -1,0.44922 -1,1c0,0.55078 0.44922,1 1,1v4h-6v-4c0.55078,0 1,-0.44922 1,-1c0,-0.55078 -0.44922,-1 -1,-1v-4c0.55078,0 1,-0.44922 1,-1c0,-0.55078 -0.44922,-1 -1,-1v-4c0.55078,0 1,-0.44922 1,-1c0,-0.55078 -0.44922,-1 -1,-1v-4c0.55078,0 1,-0.44922 1,-1c0,-0.55078 -0.44922,-1 -1,-1v-4c0.55078,0 1,-0.44922 1,-1c0,-0.55078 -0.44922,-1 -1,-1zM14,38c-0.55078,0 -1,0.44922 -1,1c0,0.55078 0.44922,1 1,1c0.55078,0 1,-0.44922 1,-1c0,-0.55078 -0.44922,-1 -1,-1zM66,38c-0.55078,0 -1,0.44922 -1,1c0,0.55078 0.44922,1 1,1c0.55078,0 1,-0.44922 1,-1c0,-0.55078 -0.44922,-1 -1,-1zM50,39.75h6v31.25h-6zM14,44c-0.55078,0 -1,0.44922 -1,1c0,0.55078 0.44922,1 1,1c0.55078,0 1,-0.44922 1,-1c0,-0.55078 -0.44922,-1 -1,-1zM66,44c-0.55078,0 -1,0.44922 -1,1c0,0.55078 0.44922,1 1,1c0.55078,0 1,-0.44922 1,-1c0,-0.55078 -0.44922,-1 -1,-1zM37,45.75h6v1.25c-0.55078,0 -1,0.44922 -1,1c0,0.55078 0.44922,1 1,1v4c-0.55078,0 -1,0.44922 -1,1c0,0.55078 0.44922,1 1,1v4c-0.55078,0 -1,0.44922 -1,1c0,0.55078 0.44922,1 1,1v4c-0.55078,0 -1,0.44922 -1,1c0,0.55078 0.44922,1 1,1v4h-6v-4c0.55078,0 1,-0.44922 1,-1c0,-0.55078 -0.44922,-1 -1,-1v-4c0.55078,0 1,-0.44922 1,-1c0,-0.55078 -0.44922,-1 -1,-1v-4c0.55078,0 1,-0.44922 1,-1c0,-0.55078 -0.44922,-1 -1,-1v-4c0.55078,0 1,-0.44922 1,-1c0,-0.55078 -0.44922,-1 -1,-1zM14,50c-0.55078,0 -1,0.44922 -1,1c0,0.55078 0.44922,1 1,1c0.55078,0 1,-0.44922 1,-1c0,-0.55078 -0.44922,-1 -1,-1zM40,50c-0.55078,0 -1,0.44922 -1,1c0,0.55078 0.44922,1 1,1c0.55078,0 1,-0.44922 1,-1c0,-0.55078 -0.44922,-1 -1,-1zM66,50c-0.55078,0 -1,0.44922 -1,1c0,0.55078 0.44922,1 1,1c0.55078,0 1,-0.44922 1,-1c0,-0.55078 -0.44922,-1 -1,-1zM14,56c-0.55078,0 -1,0.44922 -1,1c0,0.55078 0.44922,1 1,1c0.55078,0 1,-0.44922 1,-1c0,-0.55078 -0.44922,-1 -1,-1zM40,56c-0.55078,0 -1,0.44922 -1,1c0,0.55078 0.44922,1 1,1c0.55078,0 1,-0.44922 1,-1c0,-0.55078 -0.44922,-1 -1,-1zM66,56c-0.55078,0 -1,0.44922 -1,1c0,0.55078 0.44922,1 1,1c0.55078,0 1,-0.44922 1,-1c0,-0.55078 -0.44922,-1 -1,-1zM14,62c-0.55078,0 -1,0.44922 -1,1c0,0.55078 0.44922,1 1,1c0.55078,0 1,-0.44922 1,-1c0,-0.55078 -0.44922,-1 -1,-1zM40,62c-0.55078,0 -1,0.44922 -1,1c0,0.55078 0.44922,1 1,1c0.55078,0 1,-0.44922 1,-1c0,-0.55078 -0.44922,-1 -1,-1zM66,62c-0.55078,0 -1,0.44922 -1,1c0,0.55078 0.44922,1 1,1c0.55078,0 1,-0.44922 1,-1c0,-0.55078 -0.44922,-1 -1,-1zM14,68c-0.55078,0 -1,0.44922 -1,1c0,0.55078 0.44922,1 1,1c0.55078,0 1,-0.44922 1,-1c0,-0.55078 -0.44922,-1 -1,-1zM40,68c-0.55078,0 -1,0.44922 -1,1c0,0.55078 0.44922,1 1,1c0.55078,0 1,-0.44922 1,-1c0,-0.55078 -0.44922,-1 -1,-1zM66,68c-0.55078,0 -1,0.44922 -1,1c0,0.55078 0.44922,1 1,1c0.55078,0 1,-0.44922 1,-1c0,-0.55078 -0.44922,-1 -1,-1z"></path></g></g></svg>