<svg xmlns="http://www.w3.org/2000/svg" xmlns:xlink="http://www.w3.org/1999/xlink" viewBox="0,0,256,256" width="200px" height="200px" fill-rule="nonzero"><g fill="#393939" fill-rule="nonzero" stroke="none" stroke-width="1" stroke-linecap="butt" stroke-linejoin="miter" stroke-miterlimit="10" stroke-dasharray="" stroke-dashoffset="0" font-family="none" font-weight="none" font-size="none" text-anchor="none" style="mix-blend-mode: normal"><g transform="translate(0,-9.745) scale(2.56,2.56)"><path d="M22.80664,20.30664c-0.375,0 -0.71667,0.20997 -0.88867,0.54297c-0.172,0.333 -0.14283,0.73406 0.07617,1.03906l15,20.91406c0.018,0.025 0.04836,0.03364 0.06836,0.05664c-6.862,4.229 -11.44922,11.81227 -11.44922,20.44727c0,13.233 10.767,24 24,24c13.233,0 24,-10.767 24,-24c0,-8.418 -4.3605,-15.83219 -10.9375,-20.11719c0.043,-0.041 0.09877,-0.06423 0.13477,-0.11523l15.19531,-21.18359c0.219,-0.305 0.24817,-0.70702 0.07617,-1.04102c-0.172,-0.334 -0.51367,-0.54297 -0.88867,-0.54297h-18.25586c-0.326,0 -0.63136,0.15978 -0.81836,0.42578l-8.11914,11.54492l-8.11914,-11.54687c-0.187,-0.266 -0.49236,-0.42383 -0.81836,-0.42383zM24.75586,22.30664h2.73047l10.39258,15.28125c0.097,0.142 0.25406,0.21875 0.41406,0.21875c0.097,0 0.1933,-0.02794 0.2793,-0.08594c0.228,-0.155 0.28881,-0.46631 0.13281,-0.69531l-10.00977,-14.71875h11.84766l12.09375,17.19727c-0.991,-0.125 -1.99944,-0.19727 -3.02344,-0.19727c-3.91,0 -7.60119,0.94728 -10.86719,2.61328c-0.03,-0.097 -0.062,-0.19425 -0.125,-0.28125zM59.45703,22.30664h11.94531l-9.94727,14.04102c-0.16,0.226 -0.10586,0.53827 0.11914,0.69727c0.088,0.062 0.18806,0.0918 0.28906,0.0918c0.157,0 0.31216,-0.07294 0.41016,-0.21094l10.35547,-14.61914h2.61719l-14.06055,19.60156c-0.067,0.094 -0.10572,0.19873 -0.13672,0.30273c-0.633,-0.344 -1.28422,-0.65731 -1.94922,-0.94531c0.011,-0.012 0.02711,-0.01825 0.03711,-0.03125l1.625,-2.125c0.168,-0.219 0.12525,-0.53317 -0.09375,-0.70117c-0.22,-0.167 -0.53317,-0.12425 -0.70117,0.09375l-1.625,2.125c-0.067,0.087 -0.09075,0.19097 -0.09375,0.29297c-1.247,-0.483 -2.54386,-0.86967 -3.88086,-1.13867c0.281,-0.339 0.33045,-0.82708 0.06445,-1.20508l-3.20898,-4.56055zM49.61328,41.30664c12.131,0 22,9.869 22,22c0,12.131 -9.869,22 -22,22c-12.131,0 -22,-9.869 -22,-22c0,-12.131 9.869,-22 22,-22zM50.50977,45.25977c-1.65921,-0.04453 -3.33859,0.14875 -4.99609,0.58594c-0.269,0.072 -0.42938,0.34433 -0.35937,0.61133c0.071,0.267 0.34633,0.42747 0.61133,0.35547c5.001,-1.315 10.22322,-0.269 14.32422,2.875c4.351,3.335 6.76875,8.59908 6.46875,14.08008c-0.015,0.276 0.1947,0.51334 0.4707,0.52734c0.009,0.001 0.0203,0 0.0293,0c0.264,0 0.48305,-0.20566 0.49805,-0.47266c0.319,-5.812 -2.24442,-11.39269 -6.85742,-14.92969c-2.98925,-2.29144 -6.53919,-3.53485 -10.18945,-3.63281zM43.82617,46.42188c-0.0648,-0.00202 -0.12961,0.00845 -0.19336,0.0332c-0.469,0.182 -0.93176,0.38347 -1.38477,0.60547c-0.248,0.122 -0.34952,0.42192 -0.22852,0.66992c0.086,0.178 0.26422,0.28125 0.44922,0.28125c0.074,0 0.14775,-0.01578 0.21875,-0.05078c0.427,-0.21 0.86269,-0.40027 1.30469,-0.57227c0.258,-0.1 0.38611,-0.39144 0.28711,-0.64844c-0.075,-0.1935 -0.25874,-0.31231 -0.45312,-0.31836zM40.22266,48.40039c-0.126,-0.02188 -0.26005,0.00398 -0.37305,0.08398c-1.44,1.019 -2.71973,2.25106 -3.80273,3.66406c-0.168,0.219 -0.12525,0.53317 0.09375,0.70117c0.091,0.07 0.19673,0.10352 0.30273,0.10352c0.15,0 0.30044,-0.06631 0.39844,-0.19531c1.021,-1.333 2.22794,-2.49603 3.58594,-3.45703c0.226,-0.16 0.27814,-0.47227 0.11914,-0.69727c-0.08,-0.1125 -0.19822,-0.18125 -0.32422,-0.20312zM50.36719,55.68164c-0.18212,0 -0.36377,0.08486 -0.44727,0.25586l-2.05664,4.16797l-4.59766,0.66797c-0.188,0.027 -0.3453,0.15884 -0.4043,0.33984c-0.059,0.181 -0.011,0.37872 0.125,0.51172l3.32813,3.24219l-0.78711,4.58008c-0.032,0.188 0.04522,0.37823 0.19922,0.49023c0.154,0.113 0.36134,0.12711 0.52734,0.03711l4.11133,-2.16211l4.11328,2.16211c0.073,0.039 0.15342,0.05859 0.23242,0.05859c0.104,0 0.20792,-0.0317 0.29492,-0.0957c0.154,-0.112 0.22927,-0.30223 0.19727,-0.49023l-0.78516,-4.58008l3.32813,-3.24219c0.138,-0.133 0.18595,-0.33172 0.12695,-0.51172c-0.059,-0.181 -0.21334,-0.31284 -0.40234,-0.33984l-4.59961,-0.66797l-2.05664,-4.16797c-0.084,-0.171 -0.26514,-0.25586 -0.44727,-0.25586zM50.36719,57.28906l1.72461,3.49414c0.073,0.147 0.21395,0.25044 0.37695,0.27344l3.85352,0.55859l-2.78906,2.7207c-0.118,0.115 -0.16958,0.27941 -0.14258,0.44141l0.6582,3.83984l-3.44922,-1.81055c-0.073,-0.039 -0.15242,-0.05859 -0.23242,-0.05859c-0.08,0 -0.15847,0.01959 -0.23047,0.05859l-3.44922,1.81055l0.6582,-3.83984c0.028,-0.162 -0.02653,-0.32741 -0.14453,-0.44141l-2.78906,-2.7207l3.85547,-0.55859c0.163,-0.023 0.303,-0.12644 0.375,-0.27344zM35.55469,71.61328c-0.06402,0.01119 -0.12755,0.03477 -0.18555,0.07227c-0.232,0.15 -0.29844,0.45941 -0.14844,0.69141c1.093,1.695 2.46798,3.18287 4.08398,4.42188c3.184,2.441 6.94278,3.62305 10.67578,3.62305c5.286,0 10.51566,-2.36795 13.97266,-6.87695c0.168,-0.219 0.1272,-0.53317 -0.0918,-0.70117c-0.221,-0.168 -0.53513,-0.1272 -0.70312,0.0918c-5.562,7.256 -15.99205,8.63331 -23.24805,3.07031c-1.524,-1.169 -2.81961,-2.57192 -3.84961,-4.16992c-0.11175,-0.174 -0.31381,-0.25622 -0.50586,-0.22266z"></path></g></g></svg>