<svg fill="#d1d1d1" xmlns="http://www.w3.org/2000/svg"  viewBox="0 0 128 128" width="128px" height="128px"><path d="M 14 1 C 6.8 1 1 6.8 1 14 L 1 28 L 1 81 C 1 82.7 2.3 84 4 84 C 5.7 84 7 82.7 7 81 L 7 35 L 121 35 L 121 38 C 121 39.7 122.3 41 124 41 C 125.7 41 127 39.7 127 38 L 127 14 C 127 6.8 121.2 1 114 1 L 14 1 z M 14 7 L 114 7 C 117.9 7 121 10.1 121 14 L 121 29 L 7 29 L 7 14 C 7 10.1 10.1 7 14 7 z M 18 15 C 16.3 15 15 16.3 15 18 C 15 19.7 16.3 21 18 21 L 22 21 C 23.7 21 25 19.7 25 18 C 25 16.3 23.7 15 22 15 L 18 15 z M 34 15 C 32.3 15 31 16.3 31 18 C 31 19.7 32.3 21 34 21 L 38 21 C 39.7 21 41 19.7 41 18 C 41 16.3 39.7 15 38 15 L 34 15 z M 104 61 C 102.3 61 101 62.3 101 64 C 101 65.7 102.3 67 104 67 L 116.80078 67 L 86.099609 97.599609 C 84.899609 98.799609 83.000391 98.799609 81.900391 97.599609 L 60.400391 76.099609 C 56.900391 72.599609 51.199219 72.599609 47.699219 76.099609 L 16.900391 106.90039 C 15.700391 108.10039 15.700391 109.99961 16.900391 111.09961 C 17.500391 111.69961 18.3 112 19 112 C 19.7 112 20.499609 111.69961 21.099609 111.09961 L 51.900391 80.300781 C 53.100391 79.100781 54.999609 79.100781 56.099609 80.300781 L 77.599609 101.80078 C 81.099609 105.30078 86.800781 105.30078 90.300781 101.80078 L 121 71.199219 L 121 84 C 121 85.7 122.3 87 124 87 C 125.7 87 127 85.7 127 84 L 127 64 C 127 62.3 125.7 61 124 61 L 104 61 z M 7.9628906 117 C 7.2003906 117 6.4503906 117.30039 5.9003906 117.90039 L 1.9003906 121.90039 C 0.70039063 123.10039 0.70039063 124.99961 1.9003906 126.09961 C 2.5003906 126.69961 3.3 127 4 127 C 4.7 127 5.4996094 126.69961 6.0996094 126.09961 L 10.099609 122.09961 C 11.299609 120.89961 11.299609 119.00039 10.099609 117.90039 C 9.4996094 117.30039 8.7253906 117 7.9628906 117 z"/></svg>