<svg xmlns="http://www.w3.org/2000/svg" xmlns:xlink="http://www.w3.org/1999/xlink" viewBox="0,0,256,256" width="50px" height="50px" fill-rule="nonzero"><g fill="#393939" fill-rule="nonzero" stroke="none" stroke-width="1" stroke-linecap="butt" stroke-linejoin="miter" stroke-miterlimit="10" stroke-dasharray="" stroke-dashoffset="0" font-family="none" font-weight="none" font-size="none" text-anchor="none" style="mix-blend-mode: normal"><g transform="scale(5.12,5.12)"><path d="M24.99609,2c-0.87876,0 -1.73513,0.05808 -2.57422,0.15234l0.22461,1.98828c0.78091,-0.08773 1.56037,-0.14062 2.34961,-0.14062c11.60953,0 21,9.39047 21,21c0,11.60953 -9.39047,21 -21,21c-0.78557,0 -1.56019,-0.05205 -2.33398,-0.13867l-0.22266,1.98828c0.83421,0.09338 1.68421,0.15039 2.55664,0.15039c12.69047,0 23,-10.30953 23,-23c0,-12.69047 -10.30953,-23 -23,-23zM17.4043,3.30859c-1.63893,0.57383 -3.19046,1.32353 -4.63672,2.23437l1.06445,1.69336c1.31974,-0.83116 2.7373,-1.51685 4.23438,-2.04102zM8.73047,8.73828c-1.22103,1.22103 -2.2784,2.58552 -3.19336,4.03906l1.69141,1.06445c0.84504,-1.34245 1.81304,-2.58648 2.91602,-3.68945zM34.16797,14.44531l-11.36328,17.04297l-8.14063,-7.23633l-1.32812,1.49609l9.85937,8.76367l12.63672,-18.95703zM3.30273,17.41406c-0.55867,1.59575 -0.96226,3.27256 -1.15625,5.01953l1.98828,0.2207c0.17601,-1.58503 0.54136,-3.11188 1.05469,-4.57812zM4.13867,27.35938l-1.98828,0.2207c0.19505,1.74706 0.59787,3.42161 1.15625,5.01758l1.88867,-0.66016c-0.51362,-1.46804 -0.87969,-2.99319 -1.05664,-4.57812zM7.23633,36.16797l-1.69141,1.06641c0.91621,1.45387 1.97565,2.81654 3.19727,4.03711l1.41406,-1.41406c-1.10438,-1.10343 -2.07413,-2.34733 -2.91992,-3.68945zM13.8457,42.77148l-1.06445,1.69336c1.44594,0.90855 2.99949,1.65955 4.63867,2.23242l0.6582,-1.88867c-1.49682,-0.52312 -2.91236,-1.20766 -4.23242,-2.03711z"></path></g></g></svg>