<svg xmlns="http://www.w3.org/2000/svg" xmlns:xlink="http://www.w3.org/1999/xlink" viewBox="0,0,256,256" width="50px" height="50px" fill-rule="nonzero"><g fill="#393939" fill-rule="nonzero" stroke="none" stroke-width="1" stroke-linecap="butt" stroke-linejoin="miter" stroke-miterlimit="10" stroke-dasharray="" stroke-dashoffset="0" font-family="none" font-weight="none" font-size="none" text-anchor="none" style="mix-blend-mode: normal"><g transform="scale(5.12,5.12)"><path d="M4.98438,5c-1.63675,0 -2.98437,1.34762 -2.98437,2.98438v34.03125c0,1.63675 1.34762,2.98438 2.98438,2.98438h40.03125c1.63675,0 2.98438,-1.34762 2.98438,-2.98437v-34.03125c0,-1.63675 -1.34762,-2.98437 -2.98437,-2.98437zM4.98438,7h40.03125c0.55525,0 0.98438,0.42913 0.98438,0.98438v3.01563h-42v-3.01562c0,-0.55525 0.42913,-0.98437 0.98438,-0.98437zM7,8c-0.55228,0 -1,0.44772 -1,1c0,0.55228 0.44772,1 1,1c0.55228,0 1,-0.44772 1,-1c0,-0.55228 -0.44772,-1 -1,-1zM10,8c-0.55228,0 -1,0.44772 -1,1c0,0.55228 0.44772,1 1,1c0.55228,0 1,-0.44772 1,-1c0,-0.55228 -0.44772,-1 -1,-1zM13,8c-0.55228,0 -1,0.44772 -1,1c0,0.55228 0.44772,1 1,1c0.55228,0 1,-0.44772 1,-1c0,-0.55228 -0.44772,-1 -1,-1zM4,13h42v29.01563c0,0.55525 -0.42913,0.98438 -0.98437,0.98438h-40.03125c-0.55525,0 -0.98437,-0.42913 -0.98437,-0.98437zM17,14c-0.55228,0 -1,0.44772 -1,1c0,0.55228 0.44772,1 1,1c0.55228,0 1,-0.44772 1,-1c0,-0.55228 -0.44772,-1 -1,-1zM24.07227,16l-3.07227,12h2.0625l0.45508,-2h3.00781l0.47461,2h2.0625l-3.07422,-12zM30,16v1v11h1c1,0 2.30479,0.04744 3.39063,-0.85742c1.08583,-0.90486 1.60938,-2.50924 1.60938,-5.14258c0,-2.63333 -0.52354,-4.23772 -1.60937,-5.14258c-1.08583,-0.90486 -2.39062,-0.85742 -3.39062,-0.85742zM40,16c0,0 -0.70875,-0.01379 -1.44727,0.35547c-0.73851,0.36926 -1.55273,1.3112 -1.55273,2.64453c0,0.83333 0.38534,1.51439 0.82422,2.09961c0.43888,0.58522 0.9673,1.10792 1.4668,1.60742l0.00195,0.00195c0.5,0.5 0.97249,0.97627 1.2832,1.39063c0.31067,0.41431 0.42383,0.73339 0.42383,0.90039c0,0.66667 -0.18578,0.72473 -0.44727,0.85547c-0.26149,0.13074 -0.55273,0.14453 -0.55273,0.14453c-0.84797,0 -1.16406,-0.54883 -1.16406,-0.54883l-1.67188,1.09766c0,0 0.99591,1.45117 2.83594,1.45117c0,0 0.70875,0.01379 1.44727,-0.35547c0.73851,-0.36926 1.55273,-1.3112 1.55273,-2.64453c0,-0.833 -0.38544,-1.51447 -0.82422,-2.09961c-0.43878,-0.58514 -0.9668,-1.10742 -1.4668,-1.60742l-0.00195,-0.00195c-0.4995,-0.4995 -0.97037,-0.97609 -1.28125,-1.39062c-0.31083,-0.41449 -0.42578,-0.73372 -0.42578,-0.90039c0,-0.66667 0.18578,-0.72473 0.44727,-0.85547c0.26149,-0.13074 0.55273,-0.14453 0.55273,-0.14453c0.84797,0 1.16406,0.54883 1.16406,0.54883l1.67188,-1.09766c0,0 -0.99591,-1.45117 -2.83594,-1.45117zM17,17c-0.55228,0 -1,0.44772 -1,1c0,0.55228 0.44772,1 1,1c0.55228,0 1,-0.44772 1,-1c0,-0.55228 -0.44772,-1 -1,-1zM32,18.18555c0.37691,0.0534 0.89153,0.0255 1.10938,0.20703c0.41417,0.34514 0.89063,1.24076 0.89063,3.60742c0,2.36667 -0.47646,3.26228 -0.89062,3.60742c-0.21784,0.18153 -0.73246,0.15363 -1.10937,0.20703zM24.98828,19.52734l1.0625,4.47266h-2.08008zM17,20c-0.55228,0 -1,0.44772 -1,1c0,0.55228 0.44772,1 1,1c0.55228,0 1,-0.44772 1,-1c0,-0.55228 -0.44772,-1 -1,-1zM17,23c-0.55228,0 -1,0.44772 -1,1c0,0.55228 0.44772,1 1,1c0.55228,0 1,-0.44772 1,-1c0,-0.55228 -0.44772,-1 -1,-1zM17,26c-0.55228,0 -1,0.44772 -1,1c0,0.55228 0.44772,1 1,1c0.55228,0 1,-0.44772 1,-1c0,-0.55228 -0.44772,-1 -1,-1zM17,29c-0.55228,0 -1,0.44772 -1,1c0,0.55228 0.44772,1 1,1c0.55228,0 1,-0.44772 1,-1c0,-0.55228 -0.44772,-1 -1,-1zM17,32c-0.55228,0 -1,0.44772 -1,1c0,0.55228 0.44772,1 1,1c0.55228,0 1,-0.44772 1,-1c0,-0.55228 -0.44772,-1 -1,-1zM20,32c-0.55228,0 -1,0.44772 -1,1c0,0.55228 0.44772,1 1,1c0.55228,0 1,-0.44772 1,-1c0,-0.55228 -0.44772,-1 -1,-1zM23,32c-0.55228,0 -1,0.44772 -1,1c0,0.55228 0.44772,1 1,1c0.55228,0 1,-0.44772 1,-1c0,-0.55228 -0.44772,-1 -1,-1zM26,32c-0.55228,0 -1,0.44772 -1,1c0,0.55228 0.44772,1 1,1c0.55228,0 1,-0.44772 1,-1c0,-0.55228 -0.44772,-1 -1,-1zM29,32c-0.55228,0 -1,0.44772 -1,1c0,0.55228 0.44772,1 1,1c0.55228,0 1,-0.44772 1,-1c0,-0.55228 -0.44772,-1 -1,-1zM32,32c-0.55228,0 -1,0.44772 -1,1c0,0.55228 0.44772,1 1,1c0.55228,0 1,-0.44772 1,-1c0,-0.55228 -0.44772,-1 -1,-1zM35,32c-0.55228,0 -1,0.44772 -1,1c0,0.55228 0.44772,1 1,1c0.55228,0 1,-0.44772 1,-1c0,-0.55228 -0.44772,-1 -1,-1zM38,32c-0.55228,0 -1,0.44772 -1,1c0,0.55228 0.44772,1 1,1c0.55228,0 1,-0.44772 1,-1c0,-0.55228 -0.44772,-1 -1,-1zM41,32c-0.55228,0 -1,0.44772 -1,1c0,0.55228 0.44772,1 1,1c0.55228,0 1,-0.44772 1,-1c0,-0.55228 -0.44772,-1 -1,-1zM44,32c-0.55228,0 -1,0.44772 -1,1c0,0.55228 0.44772,1 1,1c0.55228,0 1,-0.44772 1,-1c0,-0.55228 -0.44772,-1 -1,-1z"></path></g></g></svg>