<svg xmlns="http://www.w3.org/2000/svg" xmlns:xlink="http://www.w3.org/1999/xlink" viewBox="0,0,256,256" width="50px" height="50px" fill-rule="nonzero"><g fill="#393939" fill-rule="nonzero" stroke="none" stroke-width="1" stroke-linecap="butt" stroke-linejoin="miter" stroke-miterlimit="10" stroke-dasharray="" stroke-dashoffset="0" font-family="none" font-weight="none" font-size="none" text-anchor="none" style="mix-blend-mode: normal"><g transform="scale(5.12,5.12)"><path d="M5,5c-1.64453,0 -3,1.35547 -3,3v28c0,1.64453 1.35547,3 3,3h15v3h-2c-1.64453,0 -3,1.35547 -3,3v2h20v-2c0,-1.64453 -1.35547,-3 -3,-3h-2v-3h15c1.64453,0 3,-1.35547 3,-3v-28c0,-1.64453 -1.35547,-3 -3,-3zM5,7h40c0.56641,0 1,0.43359 1,1v28c0,0.56641 -0.43359,1 -1,1h-40c-0.56641,0 -1,-0.43359 -1,-1v-28c0,-0.14062 0.01172,-0.28516 0.0625,-0.40625c0.14844,-0.35937 0.51563,-0.59375 0.9375,-0.59375zM9,13c-1.09375,0 -2,0.90625 -2,2v13c0,1.09375 0.90625,2 2,2h6c1.09375,0 2,-0.90625 2,-2v-13c0,-1.09375 -0.90625,-2 -2,-2zM23,13c-1.09375,0 -2,0.90625 -2,2v13c0,1.09375 0.90625,2 2,2h18c1.09375,0 2,-0.90625 2,-2v-13c0,-1.09375 -0.90625,-2 -2,-2zM9,15h6v13h-6zM23,15h18v13h-18zM12,25c-0.55078,0 -1,0.44922 -1,1c0,0.55078 0.44922,1 1,1c0.55078,0 1,-0.44922 1,-1c0,-0.55078 -0.44922,-1 -1,-1zM32,25c-0.55078,0 -1,0.44922 -1,1c0,0.55078 0.44922,1 1,1c0.55078,0 1,-0.44922 1,-1c0,-0.55078 -0.44922,-1 -1,-1zM25,34c-0.55078,0 -1,0.44922 -1,1c0,0.55078 0.44922,1 1,1c0.55078,0 1,-0.44922 1,-1c0,-0.55078 -0.44922,-1 -1,-1zM22,39h6v3h-6zM18,44h14c0.56641,0 1,0.43359 1,1h-16c0,-0.56641 0.43359,-1 1,-1z"></path></g></g></svg>