<svg fill="#d1d1d1" xmlns="http://www.w3.org/2000/svg"  viewBox="0 0 48 48" width="48px" height="48px"><path d="M 8.1308594 3.1523438 A 1.50015 1.50015 0 0 0 8.0546875 6.1464844 C 8.0546875 6.1464844 11.637206 6.4257268 15.335938 9.3144531 C 18.842999 12.053484 22.342788 17.241089 22.707031 27.107422 L 18.367188 27.107422 C 16.393051 27.107422 15.181449 29.55599 16.380859 31.125 L 20.480469 36.490234 A 1.50015 1.50015 0 1 0 22.863281 34.669922 L 19.380859 30.107422 L 24.341797 30.107422 A 1.50015 1.50015 0 0 0 25.841797 28.607422 C 25.841797 18.120681 22.371666 11.924832 18.496094 8.2578125 C 20.767247 9.1517736 23.059348 10.324097 25.089844 12.203125 A 1.50015 1.50015 0 1 0 27.126953 10.001953 C 19.446891 2.8947947 8.7750977 3.1418636 8.296875 3.15625 C 8.296875 3.15625 8.2949219 3.15625 8.2949219 3.15625 C 8.2842809 3.1565711 8.1308594 3.1523438 8.1308594 3.1523438 z M 30.572266 15.601562 A 1.50015 1.50015 0 0 0 29.166016 17.763672 C 30.503048 20.577842 31.351563 24.11239 31.351562 28.607422 A 1.50015 1.50015 0 0 0 32.851562 30.107422 L 37.8125 30.107422 L 28.994141 41.654297 C 28.771398 41.946089 28.423037 41.945227 28.199219 41.652344 L 25.603516 38.255859 A 1.50015 1.50015 0 1 0 23.220703 40.078125 L 25.814453 43.474609 C 27.192635 45.277773 30.001649 45.278817 31.378906 43.474609 L 40.810547 31.125 A 1.50015 1.50015 0 0 0 40.8125 31.123047 C 42.009633 29.553896 40.79835 27.107422 38.824219 27.107422 L 34.203125 27.107422 C 34.020913 22.952793 33.246345 19.362953 31.875 16.476562 A 1.50015 1.50015 0 0 0 30.572266 15.601562 z"/></svg>