<svg xmlns="http://www.w3.org/2000/svg" xmlns:xlink="http://www.w3.org/1999/xlink" viewBox="0,0,256,256" width="99px" height="99px" fill-rule="nonzero"><g fill="#393939" fill-rule="nonzero" stroke="none" stroke-width="1" stroke-linecap="butt" stroke-linejoin="miter" stroke-miterlimit="10" stroke-dasharray="" stroke-dashoffset="0" font-family="none" font-weight="none" font-size="none" text-anchor="none" style="mix-blend-mode: normal"><g transform="scale(4.83019,4.83019)"><path d="M5.59961,1.69922c-0.4,0 -1.1,0.10078 -1.5,0.30078c-1.1,0.4 -1.89922,1.30039 -2.19922,2.40039c0,0.3 -0.09961,0.60039 -0.09961,0.90039v1.89844c0,6.3 -0.10156,27.30156 -0.10156,33.60156c0,0.2 0.10078,0.49922 0.30078,0.69922c5.7,5.6 3.89922,3.89961 9.69922,9.59961c0.2,0.2 0.40156,0.30078 0.60156,0.30078c22.6,-0.2 0.4,0.09922 26,-0.30078c0.8,0 1.3,-0.1 2,-0.5c0.6,-0.4 1.09844,-0.89961 1.39844,-1.59961c0.1,-0.3 0.20078,-0.7 0.30078,-1v-0.90039c0,-0.1 -0.2,-13.79922 -0.5,-23.19922c1.1,-1.2 2.09922,-2.3 3.19922,-3.5c1.6,-1.8 3.30039,-3.6 4.90039,-5.5l1.20117,-1.40039c0.5,-0.5 0.69961,-1.20039 0.59961,-1.90039c-0.1,-0.7 -0.40039,-1.29922 -0.90039,-1.69922l-1.40039,-1.20117l1.20117,1.40039c1,0.9 0.8,2.20039 0,2.90039l-1.30078,1.30078c-0.4,0.4 -0.90078,0.79922 -1.30078,1.19922c-0.2,-0.6 -0.49883,-1.1 -0.79883,-1.5c-0.8,-1.2 -1.9,-2.20039 -3,-2.90039c-0.5,-0.3 -0.99961,-0.49922 -1.59961,-0.69922c0.4,-0.4 0.79922,-0.90078 1.19922,-1.30078l1.19922,-1.40039c0.7,-0.8 2.00039,-0.99961 2.90039,-0.09961l1.40039,1.20117l-1.19922,-1.40039c-0.4,-0.5 -1.00117,-0.80039 -1.70117,-0.90039c-0.7,-0.1 -1.39883,0.19922 -1.79883,0.69922l-1.30078,1.30078c-0.5,0.5 -1,0.90039 -1.5,1.40039l0.09961,-4.5c0.1,-0.9 -0.3,-1.8 -1,-2.5c-0.3,-0.3 -0.79922,-0.50117 -1.19922,-0.70117c-0.2,-0.1 -0.50117,-0.09961 -0.70117,-0.09961c-16.7,-0.4 -8.7,-0.19922 -11,-0.19922l-20.79883,-0.20117zM37.90039,2.80078h1.19922c1.2,0.3 2.1,1.39961 2,2.59961l0.09961,4.5c-4.9,4.7 -9.09961,8.9 -14.09961,14c-0.1,0.1 -0.19922,0.20039 -0.19922,0.40039c0,0.2 -2.40039,8.6 -2.40039,8.5c-0.1,0.2 -0.1,0.39961 0,0.59961c0.2,0.5 0.70078,0.79961 1.30078,0.59961c0.1,0 8.49844,-2.80078 8.39844,-2.80078c0.1,0 0.30039,-0.09922 0.40039,-0.19922c2.2,-2.4 4.50117,-4.79922 6.70117,-7.19922c-0.3,9.4 -0.5,22.99961 -0.5,23.09961c0,0.6 -0.00117,1 -0.20117,1.5c-0.2,0.4 -0.50039,0.8 -0.90039,1c-0.5,0.3 -0.79883,0.29883 -1.29883,0.29883c-24.6,-0.4 -4.39961,-0.09883 -25.59961,-0.29883l-0.10156,-0.09961c0.3,-1.2 0.4,-2.3 0.5,-3.5c0.1,-0.8 0.10117,-1.50078 0.20117,-2.30078c0.1,-1 -0.29961,-1.99922 -1.09961,-2.69922c-0.7,-0.7 -1.80117,-1.10156 -2.70117,-1.10156c-0.8,0.1 -1.49883,0.10117 -2.29883,0.20117c-1.1,0.1 -2.30039,0.3 -3.40039,0.5l-0.09961,-0.09961c0.1,-7.4 -0.00156,-21.50117 -0.10156,-33.20117v-1.90039c-0.1,-0.1 -0.09961,-0.19883 -0.09961,-0.29883c0.1,-0.6 0.59961,-1.10078 1.09961,-1.30078c0.3,-0.2 0.50039,-0.19922 0.90039,-0.19922h1.30078l20.69922,-0.40039zM22,7.90039c-1.9,0 -3.90078,0.09922 -5.80078,0.19922c-1.9,0.1 -3.89883,0.40078 -5.79883,0.80078c1.9,0.4 3.89883,0.59883 5.79883,0.79883c2,0.1 3.90078,0.20117 5.80078,0.20117c1.9,0 3.90078,-0.10117 5.80078,-0.20117c1.9,-0.1 3.89883,-0.39883 5.79883,-0.79883c-1.9,-0.4 -3.89883,-0.60078 -5.79883,-0.80078c-1.9,-0.1 -3.80078,-0.19922 -5.80078,-0.19922zM41.90039,10.59961c0.2,0.7 0.49883,1.20117 0.79883,1.70117c0.8,1.1 1.8,2.09844 3,2.89844c0.5,0.3 1.00156,0.50117 1.60156,0.70117c-4.7,4.5 -8.50039,8.29922 -13.40039,13.19922c-0.2,-0.4 -0.39961,-0.69961 -0.59961,-1.09961c-0.8,-1.2 -1.9,-2.20039 -3,-2.90039c-0.3,-0.2 -0.70156,-0.39961 -1.10156,-0.59961c4.8,-5.1 8.40117,-9.00039 12.70117,-13.90039zM22,15.59961c-1.9,0 -3.90078,0.10117 -5.80078,0.20117c-1.9,0.1 -3.89883,0.39883 -5.79883,0.79883c1.9,0.4 3.89883,0.60078 5.79883,0.80078c2,0.1 3.90078,0.19922 5.80078,0.19922c1.9,0 3.90078,-0.09922 5.80078,-0.19922c1.9,-0.1 3.89883,-0.40078 5.79883,-0.80078c-1.9,-0.4 -3.89883,-0.59883 -5.79883,-0.79883c-1.9,-0.1 -3.90078,-0.20117 -5.80078,-0.20117zM16.5,23.30078c-1,0 -2,0.09922 -3,0.19922c-1,0.2 -2,0.40078 -3,0.80078c1,0.4 2,0.59883 3,0.79883c1,0.2 2,0.20117 3,0.20117c1.9,0 4.3,-0.3 6,-1c-1.8,-0.7 -4.1,-1 -6,-1zM28.69922,25.40039c0.2,0.3 0.3,0.60039 0.5,0.90039c0.8,1.1 1.8,2.09844 3,2.89844c0.3,0.2 0.60039,0.3 0.90039,0.5l-6.09961,1.90039zM4.40039,41.19922c0.9,0.2 1.79883,0.30039 2.79883,0.40039c0.8,0.1 1.50078,0.10117 2.30078,0.20117c0.5,0 1.00078,0.19961 1.30078,0.59961c0.3,0.4 0.49961,0.79883 0.59961,1.29883c0.1,0.8 0.09922,1.50078 0.19922,2.30078c0.1,0.9 0.20039,1.90078 0.40039,2.80078z"></path></g></g></svg>