<svg xmlns="http://www.w3.org/2000/svg" xmlns:xlink="http://www.w3.org/1999/xlink" viewBox="0,0,256,256" width="64px" height="64px" fill-rule="nonzero"><g fill="#393939" fill-rule="nonzero" stroke="none" stroke-width="1" stroke-linecap="butt" stroke-linejoin="miter" stroke-miterlimit="10" stroke-dasharray="" stroke-dashoffset="0" font-family="none" font-weight="none" font-size="none" text-anchor="none" style="mix-blend-mode: normal"><g transform="scale(4,4)"><path d="M32,0.08789c-2.0635,0 -4.12786,0.63761 -5.88086,1.91211l-2.69922,2h-14.41992c-1.657,0 -3,1.343 -3,3v52c0,1.657 1.343,3 3,3h46c1.657,0 3,-1.343 3,-3v-52c0,-1.657 -1.343,-3 -3,-3h-14.41992l-2.69922,-2c-1.753,-1.2745 -3.81736,-1.91211 -5.88086,-1.91211zM32,2.12695c1.65325,0 3.30744,0.5107 4.71094,1.5332l0.46875,0.33984l2.74023,2l0.83984,0.60938c0.768,0.556 1.22723,1.44262 1.24023,2.39063v2c0,0.552 -0.448,1 -1,1h-18c-0.552,0 -1,-0.448 -1,-1v-2c0,-0.962 0.46123,-1.86569 1.24023,-2.42969l0.83984,-0.57031l2.74023,-2l0.46875,-0.33984c1.4035,-1.0225 3.05769,-1.5332 4.71094,-1.5332zM32,3.93945c-1.10457,0 -2,0.89543 -2,2c0.00056,0.01107 0.00121,0.02214 0.00195,0.0332c-0.00071,0.00911 -0.00136,0.01822 -0.00195,0.02734c0,1.10457 0.89543,2 2,2c1.10457,0 2,-0.89543 2,-2c-0.00056,-0.01107 -0.00121,-0.02214 -0.00195,-0.0332c0.00071,-0.00911 0.00136,-0.01822 0.00195,-0.02734c0,-1.10457 -0.89543,-2 -2,-2zM9,6h12c-0.649,0.865 -1,1.918 -1,3v1h-6c-1.105,0 -2,0.895 -2,2v42c0,1.105 0.895,2 2,2h28.16992c0.795,-0.001 1.55714,-0.31786 2.11914,-0.88086l6.83008,-6.83008c0.563,-0.562 0.87986,-1.32414 0.88086,-2.11914v-34.16992c0,-1.105 -0.895,-2 -2,-2h-6v-1c0,-1.082 -0.351,-2.135 -1,-3h12c0.552,0 1,0.448 1,1v52c0,0.552 -0.448,1 -1,1h-46c-0.552,0 -1,-0.448 -1,-1v-52c0,-0.552 0.448,-1 1,-1zM14,12h6.17969c0.423,1.196 1.55231,1.996 2.82031,2h18c1.268,-0.004 2.39731,-0.804 2.82031,-2h6.17969v34h-6c-1.105,0 -2,0.895 -2,2v6h-28zM17,16c-0.552,0 -1,0.448 -1,1v2c0,0.552 0.448,1 1,1c0.552,0 1,-0.448 1,-1v-2c0,-0.552 -0.448,-1 -1,-1zM22,16c-0.552,0 -1,0.448 -1,1v2c0,0.552 0.448,1 1,1c0.552,0 1,-0.448 1,-1v-2c0,-0.552 -0.448,-1 -1,-1zM27,16c-0.552,0 -1,0.448 -1,1v2c0,0.552 0.448,1 1,1c0.552,0 1,-0.448 1,-1v-2c0,-0.552 -0.448,-1 -1,-1zM32,16c-0.552,0 -1,0.448 -1,1v2c0,0.552 0.448,1 1,1c0.552,0 1,-0.448 1,-1v-2c0,-0.552 -0.448,-1 -1,-1zM37,16c-0.552,0 -1,0.448 -1,1v2c0,0.552 0.448,1 1,1c0.552,0 1,-0.448 1,-1v-2c0,-0.552 -0.448,-1 -1,-1zM42,16c-0.552,0 -1,0.448 -1,1v2c0,0.552 0.448,1 1,1c0.552,0 1,-0.448 1,-1v-2c0,-0.552 -0.448,-1 -1,-1zM47,16c-0.552,0 -1,0.448 -1,1v2c0,0.552 0.448,1 1,1c0.552,0 1,-0.448 1,-1v-2c0,-0.552 -0.448,-1 -1,-1zM32,23c-6.065,0 -11,4.935 -11,11c0,6.065 4.935,11 11,11c6.065,0 11,-4.935 11,-11c0,-6.065 -4.935,-11 -11,-11zM32,25c4.963,0 9,4.037 9,9c0,4.963 -4.037,9 -9,9c-4.963,0 -9,-4.037 -9,-9c0,-4.963 4.037,-9 9,-9zM37.125,29.875c-0.25575,0 -0.51153,0.09747 -0.70703,0.29297l-5.41797,5.41797l-2.29297,-2.29297c-0.391,-0.391 -1.02306,-0.391 -1.41406,0c-0.391,0.391 -0.391,1.02306 0,1.41406l3,3c0.195,0.195 0.45103,0.29297 0.70703,0.29297c0.256,0 0.51203,-0.09797 0.70703,-0.29297l6.125,-6.125c0.391,-0.391 0.391,-1.02306 0,-1.41406c-0.1955,-0.1955 -0.45128,-0.29297 -0.70703,-0.29297zM44,48h4.58984l-4.58984,4.58984z"></path></g></g></svg>