<svg fill="#d1d1d1" xmlns="http://www.w3.org/2000/svg"  viewBox="0 0 32 32" width="64px" height="64px"><path d="M 17.130859 4 L 19.798828 8 L 17.130859 12 L 25 12 L 25 28 L 27 28 L 27 4 L 17.130859 4 z M 20.869141 6 L 25 6 L 25 10 L 20.869141 10 L 22.201172 8 L 20.869141 6 z M 8 10 L 8 12 L 11.585938 12 L 5.2929688 18.292969 L 6.7070312 19.707031 L 13 13.414062 L 13 17 L 15 17 L 15 10 L 8 10 z M 21 14 L 21 28 L 23 28 L 23 14 L 21 14 z M 17 17 L 17 28 L 19 28 L 19 17 L 17 17 z M 13 20 L 13 28 L 15 28 L 15 20 L 13 20 z M 9 23 L 9 28 L 11 28 L 11 23 L 9 23 z M 5 26 L 5 28 L 7 28 L 7 26 L 5 26 z"/></svg>